# xmcd CD database file
#
# Track frame offsets:
#	150
#	21762
#	35776
#	49765
#	69094
#	88807
#	116443
#	122734
#	137709
#	152636
#	175794
#	196649
#	216808
#	244118
#
# Disc length: 3507 seconds
#
# Revision: 0
# Processed by: cddbd v1.5.2PL0 Copyright (c) Steve Scherf et al.
# Submitted via: CDex 1.79
#
DISCID=b90db10e
DTITLE=Buzztown - Wherever You Hide 
DYEAR=2013
DGENRE=Blues
TTITLE0=I Can't Believe It
TTITLE1=Trader
TTITLE2=Slice Of Life
TTITLE3=The Devil's Walking In My Footsteps
TTITLE4=Dirty Woman
TTITLE5=Sons
TTITLE6=Level Up
TTITLE7=Wake Up
TTITLE8=Wherever You Hide
TTITLE9=Pills
TTITLE10=Not A Good Thing
TTITLE11=Something Growing In Me
TTITLE12=How To Love You
TTITLE13=Blue Crunch
EXTD=YEAR: 2013
EXTT0=
EXTT1=
EXTT2=
EXTT3=
EXTT4=
EXTT5=
EXTT6=
EXTT7=
EXTT8=
EXTT9=
EXTT10=
EXTT11=
EXTT12=
EXTT13=
PLAYORDER=
